<svg xmlns="http://www.w3.org/2000/svg" width="56" height="62" viewBox="0 0 56 62" version="1.1">
	<path d="M 32 5.919 C 29.982 7.041, 27.542 7.635, 26.237 7.321 C 21.785 6.250, 19.033 11.841, 22.694 14.519 C 24.286 15.682, 24.285 15.917, 22.671 18.379 C 21.727 19.820, 20.177 21.044, 19.227 21.099 C 14.352 21.377, 13.475 21.580, 13.189 22.500 C 13.019 23.050, 12.040 24.400, 11.014 25.500 C 9.988 26.600, 8.882 28.850, 8.557 30.500 C 8.073 32.957, 8.323 32.731, 9.942 29.250 C 11.029 26.913, 12.435 25, 13.066 25 C 13.734 25, 13.942 24.292, 13.564 23.306 C 12.994 21.821, 13.166 21.841, 14.957 23.461 C 16.971 25.284, 17.722 26.564, 16.239 25.648 C 15.177 24.991, 12.550 27.080, 11.163 29.684 C 9.877 32.099, 9.604 37.271, 10.704 38.371 C 11.866 39.533, 12.121 43.807, 11.068 44.458 C 10.529 44.791, 10.341 45.725, 10.651 46.532 C 10.960 47.339, 10.689 48, 10.048 48 C 9.407 48, 9.179 48.481, 9.542 49.068 C 9.905 49.656, 10.855 49.886, 11.653 49.580 C 12.463 49.269, 12.834 49.459, 12.493 50.011 C 12.157 50.555, 11.286 51, 10.558 51 C 8.839 51, 8.002 54.253, 9.180 56.358 C 10.117 58.032, 14.619 58.564, 16.588 57.235 C 18.467 55.965, 18.904 51.981, 17.580 48.170 C 15.089 40.997, 14.967 37.245, 17.144 34.778 C 18.248 33.525, 18.867 33.063, 18.517 33.750 C 17.112 36.516, 19.649 34.745, 21.759 31.488 C 23.510 28.785, 24.692 28, 27.009 28 C 29.344 28, 30 28.443, 30 30.021 C 30 31.231, 31.051 32.522, 32.617 33.235 C 34.915 34.282, 35.456 34.155, 37.039 32.201 C 38.031 30.976, 38.990 29.610, 39.171 29.166 C 39.352 28.723, 41.271 27.491, 43.435 26.430 C 48.657 23.870, 51.179 20.191, 51.744 14.314 C 52.444 7.025, 50.163 4.707, 41.884 4.292 C 36.988 4.046, 34.684 4.426, 32 5.919 M 22.666 10.427 C 22.365 11.212, 22.736 12.366, 23.490 12.991 C 24.555 13.876, 25.099 13.684, 25.930 12.130 C 27.396 9.392, 27.292 9, 25.107 9 C 24.066 9, 22.968 9.642, 22.666 10.427 M 14.248 29.250 C 13.093 30.488, 11.868 32.850, 11.525 34.500 C 10.929 37.367, 10.972 37.345, 12.492 34 C 13.367 32.075, 15.077 29.723, 16.292 28.772 C 17.506 27.822, 18.016 27.034, 17.424 27.022 C 16.833 27.010, 15.404 28.012, 14.248 29.250 M 32 29.441 C 32 31.551, 33.869 32.354, 35.544 30.964 C 37.717 29.160, 37.309 28, 34.500 28 C 32.990 28, 32 28.571, 32 29.441 M 4 45.059 C 4 46.844, 4.417 47.861, 5 47.500 C 5.550 47.160, 6 45.784, 6 44.441 C 6 43.098, 5.550 42, 5 42 C 4.450 42, 4 43.377, 4 45.059 M 12.079 46.583 C 12.127 47.748, 12.364 47.985, 12.683 47.188 C 12.972 46.466, 12.936 45.603, 12.604 45.271 C 12.272 44.939, 12.036 45.529, 12.079 46.583 M 7.250 46.662 C 6.563 46.940, 6 48.292, 6 49.667 C 6 53.045, 8.407 52.150, 8.675 48.672 C 8.788 47.202, 8.795 46.036, 8.690 46.079 C 8.586 46.122, 7.938 46.385, 7.250 46.662" stroke="#e87830" stroke-width="1.3" stroke-linejoin="round" stroke-linecap="round" fill="#e87830" fill-rule="evenodd"/>
</svg>