<svg xmlns="http://www.w3.org/2000/svg" width="54" height="51" viewBox="0 0 54 51" version="1.1">
	<path d="M 14.741 5.332 C 13.400 8.647, 13.910 10, 16.500 10 C 18.381 10, 19 9.475, 19 7.878 C 19 6.156, 18.732 5.978, 17.577 6.936 C 16.424 7.893, 16.091 7.680, 15.818 5.808 C 15.520 3.758, 15.399 3.705, 14.741 5.332 M 37 5.548 C 37 6.618, 36.463 7.008, 35.500 6.638 C 33.814 5.992, 33.600 6.819, 34.914 8.896 C 35.400 9.663, 36.519 10.015, 37.399 9.677 C 39.166 8.999, 39.576 5.474, 38 4.500 C 37.450 4.160, 37 4.632, 37 5.548 M 12.040 12.452 C 10.305 14.542, 11.170 17.450, 13.630 17.802 C 16.302 18.186, 17.455 14.598, 15.340 12.482 C 13.521 10.664, 13.523 10.664, 12.040 12.452 M 37.181 14.171 C 37.426 16.727, 37.965 17.500, 39.500 17.500 C 41.056 17.500, 41.500 16.833, 41.500 14.500 C 41.500 12.123, 41.018 11.432, 39.181 11.171 C 37.104 10.877, 36.895 11.190, 37.181 14.171 M 39.729 19.132 C 38.033 20.081, 37.312 24.979, 38.669 26.336 C 39.801 27.467, 43 23.825, 43 21.404 C 43 18.578, 41.982 17.871, 39.729 19.132 M 10.667 19.667 C 9.539 20.794, 9.925 23.520, 11.500 25.559 C 12.955 27.442, 13.043 27.444, 14.431 25.653 C 16.785 22.615, 13.285 17.049, 10.667 19.667 M 21.421 22.246 C 20.915 22.679, 19.309 23.922, 17.854 25.007 C 14.859 27.242, 10.529 34, 12.093 34 C 12.657 34, 12.809 34.500, 12.431 35.112 C 12.053 35.723, 12.340 36.592, 13.070 37.043 C 14.009 37.624, 13.537 38.076, 11.448 38.597 C 8.534 39.323, 6.073 41.560, 6.054 43.500 C 6.049 44.050, 6.909 43.375, 7.965 42 C 9.517 39.980, 10.761 39.500, 14.443 39.500 C 19.015 39.500, 20.081 38.791, 17.750 37.300 C 17.063 36.860, 16.422 35.600, 16.326 34.500 C 16.172 32.737, 16.427 32.818, 18.470 35.183 C 19.745 36.658, 20.949 38.314, 21.144 38.863 C 21.534 39.956, 24.566 40.396, 30.049 40.156 C 33.157 40.019, 33.759 39.555, 34.891 36.425 C 36.145 32.956, 37.176 32.588, 37.597 35.460 C 37.710 36.231, 37.172 37.104, 36.401 37.399 C 34.767 38.027, 34.507 40, 36.059 40 C 36.641 40, 36.870 39.599, 36.567 39.108 C 35.639 37.607, 44.414 39.967, 45.610 41.540 C 46.221 42.343, 47.078 43, 47.515 43 C 49.214 43, 44.712 39.145, 42.308 38.541 C 39.435 37.820, 39.664 37.142, 43 36.500 C 46.458 35.834, 46.687 35.002, 43.417 34.985 C 41.400 34.974, 40.919 34.704, 41.857 34.110 C 43.426 33.115, 41.936 31.802, 39.840 32.333 C 39.103 32.520, 38.837 32.483, 39.250 32.253 C 39.663 32.022, 40 31.011, 40 30.006 C 40 28.467, 37.608 25.989, 32.500 22.235 C 31.156 21.247, 22.579 21.255, 21.421 22.246 M 4 31 C 4 31.550, 4.477 32, 5.059 32 C 5.641 32, 5.840 31.550, 5.500 31 C 5.160 30.450, 4.684 30, 4.441 30 C 4.198 30, 4 30.450, 4 31 M 48 31 C 48 31.550, 48.450 32, 49 32 C 49.550 32, 50 31.550, 50 31 C 50 30.450, 49.550 30, 49 30 C 48.450 30, 48 30.450, 48 31 M 8 31.941 C 8 32.459, 8.450 33.160, 9 33.500 C 9.550 33.840, 10 33.416, 10 32.559 C 10 31.702, 9.550 31, 9 31 C 8.450 31, 8 31.423, 8 31.941 M 44.469 32.050 C 43.551 33.536, 44.281 34.062, 45.886 33.071 C 46.745 32.539, 46.848 32.024, 46.176 31.609 C 45.605 31.256, 44.837 31.455, 44.469 32.050 M 8 35.393 C 8 35.609, 8.675 36.045, 9.500 36.362 C 10.325 36.678, 11 36.501, 11 35.969 C 11 35.436, 10.325 35, 9.500 35 C 8.675 35, 8 35.177, 8 35.393 M 4.500 37 C 4.160 37.550, 4.359 38, 4.941 38 C 5.523 38, 6 37.550, 6 37 C 6 36.450, 5.802 36, 5.559 36 C 5.316 36, 4.840 36.450, 4.500 37 M 47.500 37 C 47.840 37.550, 48.568 38, 49.118 38 C 49.668 38, 49.840 37.550, 49.500 37 C 49.160 36.450, 48.432 36, 47.882 36 C 47.332 36, 47.160 36.450, 47.500 37 M 37.597 40.844 C 37.251 41.404, 37.455 42.163, 38.050 42.531 C 39.588 43.481, 40.580 42.180, 39.296 40.896 C 38.578 40.178, 38.019 40.161, 37.597 40.844 M 14 42 C 14 42.550, 14.423 43, 14.941 43 C 15.459 43, 16.160 42.550, 16.500 42 C 16.840 41.450, 16.416 41, 15.559 41 C 14.702 41, 14 41.450, 14 42 M 12.543 44.931 C 12.226 45.443, 12.425 46.144, 12.984 46.490 C 13.543 46.835, 14 46.416, 14 45.559 C 14 43.802, 13.400 43.544, 12.543 44.931 M 40 45.500 C 40 46.325, 40.177 47, 40.393 47 C 40.609 47, 41.045 46.325, 41.362 45.500 C 41.678 44.675, 41.501 44, 40.969 44 C 40.436 44, 40 44.675, 40 45.500" stroke="#e87830" stroke-width="1.3" stroke-linejoin="round" stroke-linecap="round" fill="#e87830" fill-rule="evenodd"/>
</svg>