<svg xmlns="http://www.w3.org/2000/svg" width="57" height="62" viewBox="0 0 57 62" version="1.1">
	<path d="M 23.500 5.529 C 21.300 6.321, 19.442 6.977, 19.371 6.985 C 19.301 6.993, 18.683 8.350, 18 10.001 C 15.657 15.658, 21.347 18.371, 25.222 13.445 C 27.950 9.977, 32.082 10.409, 33.443 14.303 C 34.937 18.574, 33.453 20.368, 26.203 23.058 C 22.431 24.458, 20.010 28.403, 19.978 33.200 C 19.966 35.015, 19.076 37.625, 18 39 C 16.685 40.681, 16.037 43.082, 16.022 46.327 C 16.004 50.345, 16.490 51.644, 18.923 54.077 C 21.633 56.787, 25.001 57.992, 24.999 56.250 C 24.998 55.045, 37.930 55.697, 39.476 56.980 C 40.616 57.926, 41.550 57.141, 44.416 52.823 C 46.360 49.896, 48.248 46.013, 48.611 44.195 C 49.033 42.087, 49.736 41.068, 50.553 41.382 C 51.258 41.652, 52.097 41.190, 52.417 40.355 C 53.577 37.334, 52.964 27.158, 51.397 23.407 C 50.301 20.785, 50.143 19.452, 50.897 19.201 C 52.584 18.639, 52.216 16.113, 49.993 12.990 C 47.551 9.561, 40.517 6, 36.184 6 C 34.433 6, 33 5.550, 33 5 C 33 3.573, 28.184 3.842, 23.500 5.529 M 27.345 16.543 C 27.019 17.392, 27.004 18.337, 27.310 18.643 C 28.186 19.519, 30 18.034, 30 16.441 C 30 14.522, 28.092 14.596, 27.345 16.543 M 12.164 17.579 C 10.654 18.648, 10.002 19.901, 10.321 21.121 C 10.661 22.420, 9.676 23.974, 7.157 26.111 C 4.786 28.124, 3.954 29.387, 4.792 29.705 C 5.678 30.041, 5.770 30.573, 5.084 31.399 C 3.484 33.326, 4.979 36.819, 7.854 37.872 C 10.316 38.775, 10.344 38.848, 8.250 38.921 C 5.665 39.012, 5.167 41.743, 7.567 42.664 C 11.212 44.063, 17.912 38.299, 17.967 33.718 C 18.014 29.775, 20.487 24.337, 22.926 22.814 C 26.122 20.818, 25.542 18.303, 21.750 17.714 C 19.962 17.436, 17.600 16.920, 16.500 16.566 C 15.316 16.186, 13.547 16.599, 12.164 17.579 M 13 23 C 11.718 23.828, 11.754 23.972, 13.250 23.985 C 14.213 23.993, 15 23.550, 15 23 C 15 21.780, 14.887 21.780, 13 23" stroke="#e87830" stroke-width="1.3" stroke-linejoin="round" stroke-linecap="round" fill="#e87830" fill-rule="evenodd"/>
</svg>