<svg xmlns="http://www.w3.org/2000/svg" width="62" height="60" viewBox="0 0 62 60" version="1.1">
	<path d="M 30 5.345 C 30 9.212, 22.459 11.386, 17.763 8.873 C 16.107 7.987, 15.429 8.059, 14.579 9.211 C 13.986 10.017, 13.046 10.861, 12.491 11.088 C 11.908 11.326, 11.747 12.977, 12.109 15 L 12.737 18.500 12.868 15.372 C 13.056 10.924, 15.174 9.415, 19.005 11.002 C 20.659 11.687, 23.395 11.971, 25.086 11.633 C 29.298 10.790, 30.809 12.624, 31.258 19.122 L 31.630 24.500 31.815 18.950 C 32.034 12.380, 33.123 10.983, 37.474 11.689 C 39.376 11.998, 41.875 11.605, 43.532 10.737 C 46.285 9.295, 46.229 9.272, 41.148 9.760 C 35.755 10.278, 32 8.466, 32 5.345 C 32 4.605, 31.550 4, 31 4 C 30.450 4, 30 4.605, 30 5.345 M 48.810 14.500 C 49.035 16.425, 49.345 18, 49.500 18 C 49.655 18, 49.965 16.425, 50.190 14.500 C 50.438 12.376, 50.166 11, 49.500 11 C 48.834 11, 48.562 12.376, 48.810 14.500 M 30.640 32.500 C 29.484 43.671, 29.050 45.030, 26.306 46.074 C 24.796 46.648, 24.005 47.571, 24.320 48.392 C 24.608 49.142, 24.378 50.222, 23.809 50.791 C 22.215 52.385, 23.691 53.840, 28.107 55.029 C 32.489 56.209, 38.726 54.876, 39.611 52.572 C 40.392 50.537, 38.248 46.214, 36.123 45.539 C 34.564 45.044, 33.983 43.671, 33.445 39.204 C 33.068 36.067, 32.445 31.700, 32.062 29.500 C 31.397 25.683, 31.332 25.820, 30.640 32.500 M 9.104 34.964 C 4.613 35.672, 3.284 37.856, 4.927 41.824 C 7.613 48.307, 21 46.814, 21 40.031 C 21 39.320, 20.379 39.236, 19.250 39.792 C 16.461 41.167, 9.340 41.252, 6.888 39.940 C 4.720 38.780, 4.706 38.688, 6.511 37.368 C 8.744 35.736, 14.769 35.585, 18.685 37.063 C 20.792 37.859, 21.216 37.839, 20.372 36.985 C 18.763 35.357, 13.078 34.338, 9.104 34.964 M 48.748 34.586 C 48.554 34.780, 46.956 35.048, 45.197 35.182 C 41.671 35.451, 40.543 37.332, 41.537 41.289 C 42.716 45.987, 52.230 47.770, 56 44 C 58.551 41.449, 58.715 38.493, 56.250 39.503 C 52.711 40.954, 46.253 41.206, 43.966 39.982 C 41.727 38.784, 41.710 38.685, 43.511 37.368 C 45.772 35.715, 53.295 35.570, 56.316 37.122 C 58.010 37.993, 58.247 37.975, 57.372 37.045 C 56.255 35.855, 49.425 33.908, 48.748 34.586 M 30.250 51.689 C 31.212 51.941, 32.788 51.941, 33.750 51.689 C 34.712 51.438, 33.925 51.232, 32 51.232 C 30.075 51.232, 29.288 51.438, 30.250 51.689 M 12.4 16 L 9.1 35 M 12.4 16 L 20 37 M 49.5 16 L 42 37 M 49.5 16 L 57 37" stroke="#e87830" stroke-width="1.3" stroke-linejoin="round" stroke-linecap="round" fill="#e87830" fill-rule="evenodd"/>
</svg>