<svg xmlns="http://www.w3.org/2000/svg" width="62" height="59" viewBox="0 0 62 59" version="1.1">
	<path d="M 26.500 6 C 25.505 7.100, 23.972 8.002, 23.095 8.004 C 20.689 8.009, 14.814 11.890, 15.510 13.015 C 16.546 14.693, 14.995 16.241, 13.512 15.010 C 11.744 13.542, 6.604 17.884, 7.841 19.800 C 8.302 20.515, 12.240 21.798, 16.590 22.652 C 24.395 24.182, 24.594 24.170, 31.586 21.720 C 39.363 18.994, 42 19.423, 42 23.415 C 42 26.296, 45.268 30.575, 48.017 31.294 C 49.680 31.729, 50.197 31.265, 50.667 28.917 C 51.355 25.475, 52.062 25.306, 54.500 28 C 57.031 30.796, 58 30.498, 58 26.923 C 58 22.296, 53.281 18, 48.199 18 C 43.688 18, 41.050 15.850, 42.870 13.656 C 43.757 12.588, 43.134 12.057, 39.826 11.066 C 37.538 10.380, 34.356 8.510, 32.756 6.910 C 29.304 3.457, 28.859 3.393, 26.500 6 M 11.926 26.224 C 11.885 26.376, 11.650 27.598, 11.403 28.939 C 10.760 32.441, 10.271 32.603, 7.682 30.171 C 4.603 27.278, 4 27.427, 4 31.077 C 4 35.704, 8.719 40, 13.801 40 C 17.791 40, 21.111 42.195, 19.049 43.470 C 17.200 44.612, 17.922 45.943, 20.750 46.609 C 24.823 47.568, 30.060 50.987, 30.889 53.229 C 31.592 55.130, 31.712 55.115, 34.558 52.749 C 36.176 51.404, 38.850 49.982, 40.500 49.589 C 42.150 49.196, 45.075 47.626, 47 46.099 C 48.925 44.573, 51.512 42.786, 52.750 42.127 C 55.439 40.696, 55.668 38.420, 53.250 37.154 C 52.288 36.650, 48.259 35.666, 44.298 34.968 C 37.579 33.782, 36.689 33.846, 31.016 35.914 C 23.197 38.765, 20.764 38.435, 19.947 34.413 C 19.602 32.715, 18.994 30.799, 18.596 30.156 C 17.919 29.060, 12.088 25.623, 11.926 26.224 M 46.543 42.931 C 46.226 43.443, 46.425 44.144, 46.984 44.490 C 47.543 44.835, 48 44.416, 48 43.559 C 48 41.802, 47.400 41.544, 46.543 42.931" stroke="#e87830" stroke-width="1.3" stroke-linejoin="round" stroke-linecap="round" fill="#e87830" fill-rule="evenodd"/>
</svg>