<svg xmlns="http://www.w3.org/2000/svg" width="58" height="62" viewBox="0 0 58 62" version="1.1">
	<path d="M 41.250 4.639 C 40.563 4.929, 40 5.542, 40 6.001 C 40 7.100, 47.354 6.536, 48 5.388 C 48.555 4.402, 43.216 3.809, 41.250 4.639 M 49.483 7.027 C 48.805 8.125, 50.647 11, 52.029 11 C 52.989 11, 52.074 7.164, 50.948 6.468 C 50.503 6.193, 49.843 6.444, 49.483 7.027 M 36.709 8.624 C 35.223 10.110, 36.112 11, 39.083 11 C 41.103 11, 42.025 10.569, 41.755 9.750 C 41.288 8.332, 37.783 7.550, 36.709 8.624 M 33.649 13.528 C 34.319 15.272, 38 17.525, 38 16.190 C 38 15.212, 34.706 12, 33.703 12 C 33.351 12, 33.327 12.688, 33.649 13.528 M 52.225 13.689 C 51.368 15.215, 51.319 16.079, 52.064 16.539 C 53.595 17.486, 54.215 16.526, 53.809 13.836 L 53.456 11.500 52.225 13.689 M 48.533 16.947 C 47.653 18.370, 48.775 20, 50.632 20 C 51.508 20, 52.010 19.297, 51.823 18.333 C 51.434 16.324, 49.437 15.484, 48.533 16.947 M 24.441 18.532 C 27.136 20.570, 29.699 20.547, 28 18.500 C 27.315 17.675, 25.798 17.014, 24.628 17.032 C 22.542 17.063, 22.538 17.092, 24.441 18.532 M 43.216 18.845 C 41.690 19.813, 42.663 23, 44.485 23 C 46.244 23, 48.311 20.312, 47.527 19.044 C 46.759 17.801, 44.990 17.720, 43.216 18.845 M 25.524 22.619 C 24.633 23.510, 24.164 24.497, 24.480 24.813 C 24.797 25.130, 26.043 24.401, 27.250 23.194 C 28.457 21.988, 28.927 21, 28.294 21 C 27.661 21, 26.414 21.729, 25.524 22.619 M 36.500 22.365 C 31.003 23.618, 25 26.538, 25 27.958 C 25 28.457, 24.123 29.144, 23.051 29.484 C 21.977 29.825, 21.329 30.694, 21.608 31.420 C 21.897 32.173, 21.232 32.968, 20.057 33.275 C 17.093 34.050, 17.523 35.382, 21.184 36.763 C 22.935 37.424, 24.053 38.281, 23.667 38.666 C 23.282 39.051, 22.434 38.834, 21.783 38.183 C 20.091 36.491, 14.332 36.692, 13.651 38.468 C 13.341 39.275, 13.518 40.202, 14.044 40.527 C 14.570 40.852, 15.053 40.529, 15.118 39.809 C 15.183 39.089, 15.521 39.802, 15.868 41.393 C 16.216 42.984, 17.218 44.738, 18.095 45.290 C 20.165 46.593, 25 45.375, 25 43.551 C 25 42.471, 25.677 42.334, 27.879 42.965 C 30.464 43.707, 30.703 43.582, 30.222 41.739 C 29.887 40.461, 30.079 39.931, 30.729 40.333 C 31.303 40.688, 32.359 40.272, 33.076 39.409 C 34.103 38.171, 34.131 37.170, 33.209 34.670 L 32.039 31.500 33.958 33.993 C 35.704 36.263, 35.938 36.325, 36.569 34.680 C 36.951 33.686, 36.746 31.664, 36.115 30.186 C 35.113 27.840, 35.142 27.721, 36.344 29.250 C 38.275 31.705, 38.998 31.435, 39.015 28.250 C 39.027 26.107, 39.245 25.831, 40 27 C 40.533 27.825, 41.028 28.050, 41.099 27.500 C 41.636 23.343, 41.852 21.017, 41.690 21.112 C 41.586 21.174, 39.250 21.738, 36.500 22.365 M 18.263 25.161 C 18.142 26.771, 18.385 27.015, 19.251 26.149 C 20.008 25.392, 20.063 24.663, 19.412 24.012 C 18.761 23.361, 18.369 23.753, 18.263 25.161 M 51 26.211 C 51 27.610, 51.655 29.298, 52.454 29.962 C 53.703 30.998, 53.778 30.712, 52.985 27.949 C 51.775 23.728, 51 23.050, 51 26.211 M 15.158 29 C 15.158 30.375, 15.385 30.938, 15.662 30.250 C 15.940 29.563, 15.940 28.438, 15.662 27.750 C 15.385 27.063, 15.158 27.625, 15.158 29 M 17.079 29.583 C 17.127 30.748, 17.364 30.985, 17.683 30.188 C 17.972 29.466, 17.936 28.603, 17.604 28.271 C 17.272 27.939, 17.036 28.529, 17.079 29.583 M 27 28.393 C 27 28.609, 27.698 29.054, 28.552 29.382 C 29.442 29.723, 29.843 29.555, 29.493 28.989 C 28.906 28.038, 27 27.583, 27 28.393 M 25 32.713 C 25.825 33.019, 27.175 33.771, 28 34.384 C 29.303 35.354, 29.320 35.271, 28.128 33.750 C 27.373 32.788, 26.023 32.036, 25.128 32.079 C 23.766 32.145, 23.745 32.249, 25 32.713 M 6.042 34.449 C 4.950 35.765, 5.068 36, 6.819 36 C 7.953 36, 9.160 36.450, 9.500 37 C 10.726 38.984, 13.149 38.071, 12.820 35.750 C 12.427 32.987, 7.966 32.131, 6.042 34.449 M 51.345 34.543 C 50.415 36.967, 51.713 37.405, 52.954 35.086 C 53.728 33.639, 53.743 33, 53.004 33 C 52.417 33, 51.671 33.694, 51.345 34.543 M 39.500 36 C 37.592 36.820, 37.603 36.863, 39.750 36.930 C 40.987 36.968, 42 36.550, 42 36 C 42 35.450, 41.888 35.032, 41.750 35.070 C 41.612 35.109, 40.600 35.527, 39.500 36 M 43.015 37.191 C 43.024 38.461, 43.467 40.175, 44 41 C 44.738 42.141, 44.973 41.737, 44.985 39.309 C 44.993 37.554, 44.550 35.840, 44 35.500 C 43.442 35.155, 43.007 35.903, 43.015 37.191 M 5.250 37.662 C 3.607 38.325, 3.701 44.023, 5.392 46.250 C 6.731 48.014, 8.584 48.754, 7.575 47.121 C 7.276 46.638, 7.706 44.892, 8.530 43.240 C 10.783 38.725, 9.217 36.062, 5.250 37.662 M 36.500 42 C 36.160 42.550, 36.696 43.007, 37.691 43.015 C 39.225 43.028, 39.272 43.178, 38 44 C 37.175 44.533, 36.987 44.976, 37.583 44.985 C 39.222 45.008, 39.924 43.966, 39.324 42.402 C 38.695 40.764, 37.380 40.576, 36.500 42 M 32.813 43.683 C 33.534 43.972, 34.397 43.936, 34.729 43.604 C 35.061 43.272, 34.471 43.036, 33.417 43.079 C 32.252 43.127, 32.015 43.364, 32.813 43.683 M 32.750 45.662 C 33.438 45.940, 34.563 45.940, 35.250 45.662 C 35.938 45.385, 35.375 45.158, 34 45.158 C 32.625 45.158, 32.063 45.385, 32.750 45.662 M 22.459 47.067 C 22.096 47.653, 22.040 48.373, 22.333 48.667 C 23.050 49.383, 25 48.121, 25 46.941 C 25 45.663, 23.274 45.748, 22.459 47.067 M 24.459 49.067 C 24.096 49.653, 24.632 50.741, 25.648 51.485 C 26.665 52.228, 27.160 53.173, 26.748 53.585 C 26.337 53.997, 26 53.808, 26 53.167 C 26 51.536, 22.764 51.711, 20.441 53.468 C 19.374 54.276, 17.600 54.965, 16.500 55 C 14.526 55.063, 14.526 55.083, 16.441 56.532 C 18.819 58.330, 26.112 58.538, 25.750 56.797 C 25.613 56.135, 26.400 55.572, 27.500 55.547 C 29.905 55.491, 30.955 50.221, 28.830 48.874 C 27.003 47.715, 25.246 47.793, 24.459 49.067" stroke="#e87830" stroke-width="1.3" stroke-linejoin="round" stroke-linecap="round" fill="#e87830" fill-rule="evenodd"/>
</svg>