<svg xmlns="http://www.w3.org/2000/svg" width="55" height="61" viewBox="0 0 55 61" version="1.1">
	<path d="M 37.558 4.906 C 37.250 5.405, 33.961 7.233, 30.249 8.969 C 20.957 13.315, 19 15.339, 19 20.603 C 19 25.822, 20.954 28, 25.637 28 C 30.398 28, 33 26.418, 33 23.524 C 33 20.698, 31.382 19.448, 28.250 19.852 C 26.541 20.073, 26 19.640, 26 18.050 C 26 16.629, 27.527 15.015, 30.750 13.031 C 38.347 8.352, 40 6.998, 40 5.453 C 40 3.842, 38.432 3.491, 37.558 4.906 M 11.009 16.913 L 5.518 17.500 4.703 23 C 2.991 34.551, 7.425 50.043, 13.900 55.136 C 16.372 57.080, 16.387 57.080, 17.513 54.975 C 19.170 51.880, 26.695 47.929, 33 46.846 C 47.242 44.398, 47.700 44.285, 44.500 44.002 L 41.500 43.737 45 43.118 C 49.215 42.374, 50.553 38.628, 47.006 37.502 C 45.286 36.956, 45.119 36.561, 46.107 35.372 C 47.087 34.190, 46.907 33.623, 45.164 32.402 C 43.979 31.572, 42.048 28.657, 40.872 25.924 C 39.696 23.190, 37.409 19.839, 35.790 18.477 C 32.814 15.973, 28 15.102, 28 17.067 C 28 17.670, 28.848 17.866, 29.944 17.518 C 32.623 16.667, 35.330 20.838, 34.428 24.429 C 33.149 29.526, 24.362 31.733, 19.861 28.088 C 17.940 26.533, 17.500 25.229, 17.500 21.088 C 17.500 18.290, 17.275 16.073, 17 16.163 C 16.725 16.253, 14.029 16.590, 11.009 16.913 M 33.496 30.007 C 32.711 31.276, 35.511 32.420, 37.059 31.464 C 37.901 30.943, 37.847 30.518, 36.857 29.890 C 35.069 28.758, 34.250 28.786, 33.496 30.007 M 49.564 42.707 C 49.022 44.132, 49.136 44.247, 50.124 43.267 C 50.808 42.588, 51.115 41.781, 50.807 41.474 C 50.499 41.166, 49.940 41.721, 49.564 42.707" stroke="#e87830" stroke-width="1.3" stroke-linejoin="round" stroke-linecap="round" fill="#e87830" fill-rule="evenodd"/>
</svg>