<svg xmlns="http://www.w3.org/2000/svg" width="53" height="58" viewBox="0 0 53 58" version="1.1">
	<path d="M 28.436 5.129 C 23.271 6.292, 18.213 10.564, 17.046 14.750 C 15.670 19.685, 17.677 18.963, 22.195 12.897 C 24.993 9.139, 27.954 7.572, 34.215 6.537 C 36.258 6.199, 38.197 5.490, 38.524 4.961 C 39.250 3.787, 34.009 3.874, 28.436 5.129 M 28.415 9.423 C 26.719 10.161, 24.364 12.055, 23.182 13.632 C 22.001 15.210, 20.689 16.798, 20.267 17.162 C 16.008 20.835, 7.086 31.446, 4.494 35.920 C 3.864 37.009, 4.118 37.183, 5.586 36.667 C 7.419 36.024, 7.423 36.055, 5.680 37.409 C 3.976 38.732, 3.970 38.884, 5.572 39.781 C 6.514 40.307, 8.233 40.539, 9.392 40.295 C 11.461 39.860, 11.464 39.881, 9.559 41.426 C 7.653 42.971, 7.658 43, 9.783 43 C 11.178 43, 12.501 41.932, 13.500 40 C 14.353 38.350, 15.421 37, 15.872 37 C 18.201 37, 23.217 40.518, 24.542 43.081 C 26.488 46.844, 28.178 46.766, 31.551 42.758 C 34.104 39.723, 38 31.968, 38 29.920 C 38 28.655, 30.984 21, 29.825 21 C 29.306 21, 29.181 21.483, 29.546 22.074 C 29.932 22.698, 29.384 22.632, 28.237 21.916 C 25.729 20.350, 22.574 21.449, 23.401 23.601 C 23.735 24.473, 24.254 26.381, 24.554 27.843 C 25.002 30.025, 24.819 29.891, 23.532 27.093 C 21.547 22.778, 22.351 20, 25.586 20 C 27.643 20, 27.945 19.631, 27.462 17.706 C 26.434 13.608, 30.062 11.557, 39.066 11.149 C 43.390 10.952, 47.355 10.276, 47.878 9.646 C 49.323 7.902, 32.360 7.708, 28.415 9.423 M 30 27.326 C 30 29.652, 29.201 31.380, 27.340 33.076 C 25.379 34.863, 24.842 35.049, 25.296 33.782 C 25.635 32.837, 25.534 31.830, 25.071 31.544 C 24.608 31.257, 24.015 32.143, 23.753 33.512 C 23.126 36.791, 24.997 36.731, 28.364 33.364 C 30.167 31.560, 31 29.665, 31 27.364 C 31 25.514, 30.775 24, 30.500 24 C 30.225 24, 30 25.497, 30 27.326 M 15 29 C 15 29.550, 15.450 30, 16 30 C 16.550 30, 17 29.550, 17 29 C 17 28.450, 16.550 28, 16 28 C 15.450 28, 15 28.450, 15 29 M 14.660 39.443 C 14.356 40.236, 14.533 42.371, 15.053 44.186 C 15.574 46.001, 16 48.824, 16 50.458 C 16 53.163, 16.141 53.287, 17.577 51.852 C 19.644 49.784, 20.532 42.862, 19.077 40.144 C 17.761 37.686, 15.474 37.322, 14.660 39.443 M 12.375 46.125 C 12.719 47.844, 13 50.394, 13 51.792 C 13 54.497, 14.182 54.101, 14.702 51.221 C 15.213 48.383, 13.987 43, 12.830 43 C 12.154 43, 11.984 44.169, 12.375 46.125" stroke="#e87830" stroke-width="1.3" stroke-linejoin="round" stroke-linecap="round" fill="#e87830" fill-rule="evenodd"/>
</svg>