<svg xmlns="http://www.w3.org/2000/svg" width="62" height="58" viewBox="0 0 62 58" version="1.1">
	<path d="M 13.896 5.331 C 9.976 7.090, 8.053 8.976, 5.927 13.143 C 2.286 20.280, 4.471 32.415, 10.107 36.363 C 15.347 40.032, 24.366 39.171, 27.497 34.701 C 30.240 30.785, 28.909 25, 25.265 25 C 24.269 25, 24.185 25.477, 24.933 26.874 C 26.302 29.434, 23.379 32, 19.094 32 C 16.809 32, 14.945 31.099, 12.806 28.960 C 10.264 26.418, 9.867 25.394, 10.382 22.710 C 11.599 16.367, 18.750 13.035, 23.702 16.504 C 26.428 18.413, 30.205 17.144, 32.580 13.519 C 34.161 11.105, 34.159 10.833, 32.541 9.045 C 28.401 4.471, 19.683 2.734, 13.896 5.331 M 32.814 16.119 C 30.872 18.201, 29.186 19, 26.730 19 C 24.862 19, 23.016 18.683, 22.629 18.296 C 21.418 17.084, 17.343 16.919, 14.583 17.969 C 11.978 18.959, 11.962 19.025, 13.540 22.078 C 14.423 23.784, 14.922 25.760, 14.650 26.468 C 13.456 29.582, 20.536 31.469, 22.869 28.658 C 24.211 27.041, 23.366 26, 20.711 26 C 19.086 26, 18.966 25.746, 20 24.500 C 21.941 22.161, 27.602 22.594, 29.443 25.223 C 31.440 28.074, 31.436 32.933, 29.433 35.792 C 26.452 40.048, 17.370 42.339, 12.919 39.957 C 9.844 38.311, 9.370 41.457, 12.094 45.433 C 15.180 49.936, 21.613 54, 25.655 54 C 28.595 54, 28.974 53.655, 29.579 50.429 C 29.948 48.464, 31.358 45.539, 32.714 43.929 C 34.918 41.308, 35.790 41, 40.997 41 C 45.363 41, 48.111 40.328, 52.005 38.308 C 56.717 35.863, 57.030 35.495, 55.406 34.308 C 53.733 33.085, 53.759 33, 55.809 33 C 59.505 33, 58.334 29.831, 52.737 24.691 C 48.612 20.903, 36.254 12.543, 35.629 13.119 C 35.558 13.184, 34.291 14.534, 32.814 16.119 M 16.431 19.103 C 14.925 19.693, 14.858 19.875, 16.125 19.930 C 17.019 19.968, 19.226 20.295, 21.030 20.656 C 23.188 21.088, 24.092 20.957, 23.670 20.276 C 22.785 18.843, 18.760 18.191, 16.431 19.103 M 35.496 23.007 C 34.701 24.292, 37.510 25.402, 39.563 24.614 C 41.567 23.845, 40.464 22, 38 22 C 36.965 22, 35.838 22.453, 35.496 23.007 M 55.500 30 C 55.840 30.550, 56.316 31, 56.559 31 C 56.802 31, 57 30.550, 57 30 C 57 29.450, 56.523 29, 55.941 29 C 55.359 29, 55.160 29.450, 55.500 30" stroke="#e87830" stroke-width="1.3" stroke-linejoin="round" stroke-linecap="round" fill="#e87830" fill-rule="evenodd"/>
</svg>