<svg xmlns="http://www.w3.org/2000/svg" width="62" height="62" viewBox="0 0 62 62" version="1.1">
	<path d="M 48.667 4.667 C 47.465 5.868, 47.967 6.780, 49.750 6.639 C 50.880 6.549, 51.500 7.209, 51.500 8.500 C 51.500 10.277, 50.815 10.506, 45.345 10.556 C 40.524 10.599, 38.413 11.141, 35.600 13.056 C 32.145 15.408, 29 20.254, 29 23.227 C 29 25.393, 24.893 28.701, 21.247 29.472 C 14.437 30.913, 9.180 39.473, 10.404 47.128 C 10.876 50.079, 10.668 51.190, 9.564 51.614 C 7.261 52.498, 5.676 51.096, 7.074 49.411 C 8.019 48.272, 7.836 48, 6.122 48 C 4.436 48, 4 48.610, 4 50.965 C 4 54.655, 6.759 56.422, 10.374 55.048 C 13.407 53.895, 14.352 52.241, 16.348 44.599 C 18.099 37.895, 22.588 32.469, 27.228 31.450 C 29.439 30.964, 30.594 29.793, 31.956 26.654 C 34.479 20.841, 37.831 18.115, 44.633 16.344 C 47.860 15.503, 51.063 14.352, 51.750 13.786 C 52.704 12.999, 53.030 13.555, 53.127 16.128 C 53.213 18.403, 53.569 17.454, 54.220 13.214 C 54.937 8.537, 54.873 6.552, 53.970 5.464 C 52.708 3.943, 49.824 3.509, 48.667 4.667 M 7 8.063 C 7 11.423, 8.932 14.301, 10.381 13.099 C 11.296 12.339, 13.436 13.897, 18.534 19.034 C 22.336 22.865, 25.752 26, 26.126 26 C 26.500 26, 23.686 22.988, 19.873 19.307 C 15.181 14.777, 13.030 11.976, 13.220 10.641 C 13.421 9.227, 12.579 8.288, 10.250 7.331 C 7.200 6.077, 7 6.122, 7 8.063 M 38.796 39.295 C 44.234 44.761, 47.376 48.777, 48.009 51.071 C 49.076 54.935, 55 59.583, 55 56.557 C 55 55.700, 55.675 55, 56.500 55 C 57.325 55, 58 54.605, 58 54.122 C 58 53.640, 57.325 52.685, 56.500 52 C 55.399 51.086, 54.946 48.329, 54.796 41.628 L 54.593 32.500 54.258 40.604 C 53.927 48.639, 53.902 48.704, 51.427 48.231 C 50.054 47.968, 45.041 43.984, 40.286 39.377 C 35.531 34.770, 31.394 31, 31.092 31 C 30.791 31, 34.258 34.733, 38.796 39.295 M 7 8 L 55 55 M 48.7 4.7 L 10.3 55" stroke="#e87830" stroke-width="1.3" stroke-linejoin="round" stroke-linecap="round" fill="#e87830" fill-rule="evenodd"/>
</svg>