<svg xmlns="http://www.w3.org/2000/svg" width="48" height="61" viewBox="0 0 48 61" version="1.1">
	<path d="M 18.500 5.417 C 14.487 7.209, 10.473 11.623, 8.447 16.472 C 7.074 19.757, 6.907 22.349, 7.478 31.481 C 8.125 41.840, 8.034 42.687, 6.003 45.268 C 2.903 49.210, 3.897 50.136, 8.250 47.362 C 10.581 45.876, 12 44.197, 12 42.926 C 12 41.802, 12.450 41.160, 13 41.500 C 14.713 42.559, 14.105 46.506, 11.461 51.478 C 10.064 54.105, 9.199 56.532, 9.538 56.871 C 9.877 57.210, 11.841 55.680, 13.902 53.470 C 17.153 49.985, 17.886 48.263, 19.427 40.476 C 20.404 35.539, 21.642 30.311, 22.178 28.859 C 22.866 26.993, 22.790 25.637, 21.918 24.241 C 20.354 21.736, 21.360 19, 23.846 19 C 24.896 19, 26.337 18.299, 27.048 17.442 C 27.759 16.585, 29.839 15.258, 31.670 14.493 C 34.173 13.447, 35 12.487, 35 10.624 C 35 5.066, 25.795 2.161, 18.500 5.417 M 36.414 18.079 C 36.490 22.160, 36.043 27.525, 35.422 30 C 34.475 33.768, 33.861 34.551, 31.646 34.816 C 29.624 35.058, 29 35.688, 29 37.486 C 29 39.441, 29.888 40.128, 34.250 41.548 C 37.138 42.488, 40.290 43.946, 41.256 44.789 C 43.434 46.689, 44.871 45.516, 43.200 43.202 C 37.591 35.434, 36.918 32.184, 39.114 23.463 C 40.312 18.703, 39.907 15.621, 37.682 12.579 C 36.432 10.870, 36.292 11.478, 36.414 18.079" stroke="#e87830" stroke-width="1.3" stroke-linejoin="round" stroke-linecap="round" fill="#e87830" fill-rule="evenodd"/>
</svg>